<?xml version="1.0" encoding="UTF-8"?>
<svg width="48px" height="48px" viewBox="0 0 48 48" version="1.1" xmlns="http://www.w3.org/2000/svg" xmlns:xlink="http://www.w3.org/1999/xlink">
    <!-- Generator: Sketch 48.2 (47327) - http://www.bohemiancoding.com/sketch -->
    <title>ui/icons/bell</title>
    <desc>Created with Sketch.</desc>
    <defs>
        <path d="M24.3076923,39.8095238 C24.3076923,39.6354167 24.1730769,39.5 24,39.5 C22.4807692,39.5 21.2307692,38.2425595 21.2307692,36.7142857 C21.2307692,36.5401786 21.0961538,36.4047619 20.9230769,36.4047619 C20.75,36.4047619 20.6153846,36.5401786 20.6153846,36.7142857 C20.6153846,38.5907738 22.1346154,40.1190476 24,40.1190476 C24.1730769,40.1190476 24.3076923,39.983631 24.3076923,39.8095238 Z M11.5,34.2380952 C14.9423077,30.3303571 16.6153846,25.0297619 16.6153846,18.1428571 C16.6153846,15.6473214 18.9615385,11.952381 24,11.952381 C29.0384615,11.952381 31.3846154,15.6473214 31.3846154,18.1428571 C31.3846154,25.0297619 33.0576923,30.3303571 36.5,34.2380952 L11.5,34.2380952 Z M40,34.2380952 C40,35.5922619 38.8846154,36.7142857 37.5384615,36.7142857 L28.9230769,36.7142857 C28.9230769,39.4419643 26.7115385,41.6666667 24,41.6666667 C21.2884615,41.6666667 19.0769231,39.4419643 19.0769231,36.7142857 L10.4615385,36.7142857 C9.11538462,36.7142857 8,35.5922619 8,34.2380952 C10.8461538,31.8199405 14.1538462,27.4866071 14.1538462,18.1428571 C14.1538462,14.4285714 17.2115385,10.3660714 22.3076923,9.61160714 C22.2115385,9.37946429 22.1538462,9.12797619 22.1538462,8.85714286 C22.1538462,7.83184524 22.9807692,7 24,7 C25.0192308,7 25.8461538,7.83184524 25.8461538,8.85714286 C25.8461538,9.12797619 25.7884615,9.37946429 25.6923077,9.61160714 C30.7884615,10.3660714 33.8461538,14.4285714 33.8461538,18.1428571 C33.8461538,27.4866071 37.1538462,31.8199405 40,34.2380952 Z" id="path-1"></path>
    </defs>
    <g id="Symbols" stroke="none" stroke-width="1" fill="none" fill-rule="evenodd">
        <g id="ui/icons/bell">
            <mask id="mask-2" fill="white">
                <use xlink:href="#path-1"></use>
            </mask>
            <use id="icon-base" fill="#000000" xlink:href="#path-1"></use>
            <g id="ui/color/darker" mask="url(#mask-2)"></g>
        </g>
    </g>
</svg>