<?xml version="1.0" encoding="UTF-8"?>
<svg width="48px" height="48px" viewBox="0 0 48 48" version="1.1" xmlns="http://www.w3.org/2000/svg" xmlns:xlink="http://www.w3.org/1999/xlink">
    <!-- Generator: Sketch 48.2 (47327) - http://www.bohemiancoding.com/sketch -->
    <title>ui/icons/home</title>
    <desc>Created with Sketch.</desc>
    <defs>
        <path d="M35.4322554,25.6723869 L35.4322554,35.1992664 C35.4322554,35.8939347 34.8566731,36.469517 34.1620048,36.469517 L26.5405012,36.469517 L26.5405012,28.8480134 L21.4594988,28.8480134 L21.4594988,36.469517 L13.8379952,36.469517 C13.1433269,36.469517 12.5677446,35.8939347 12.5677446,35.1992664 L12.5677446,25.6723869 C12.5677446,25.6326915 12.5875922,25.5929962 12.5875922,25.5533009 L24,16.1455073 L35.4124078,25.5533009 C35.4322554,25.5929962 35.4322554,25.6326915 35.4322554,25.6723869 Z M39.8582849,24.3028979 L38.6277296,25.7716252 C38.5284913,25.8907112 38.36971,25.9701018 38.2109286,25.9899495 L38.1513856,25.9899495 C37.9926043,25.9899495 37.8536706,25.9502542 37.7345847,25.8510158 L24,14.3989127 L10.2654153,25.8510158 C10.1264817,25.9502542 9.96770036,26.0097972 9.78907137,25.9899495 C9.63029005,25.9701018 9.47150872,25.8907112 9.37227039,25.7716252 L8.14171512,24.3028979 C7.9233908,24.0448783 7.96308613,23.6280773 8.22110578,23.409753 L22.4915774,11.5210012 C23.3251794,10.8263329 24.6748206,10.8263329 25.5084226,11.5210012 L30.351253,15.569925 L30.351253,11.6996302 C30.351253,11.3423722 30.6291203,11.0645049 30.9863783,11.0645049 L34.7971301,11.0645049 C35.1543881,11.0645049 35.4322554,11.3423722 35.4322554,11.6996302 L35.4322554,19.7974778 L39.7788942,23.409753 C40.0369139,23.6280773 40.0766092,24.0448783 39.8582849,24.3028979 Z" id="path-1"></path>
    </defs>
    <g id="Symbols" stroke="none" stroke-width="1" fill="none" fill-rule="evenodd">
        <g id="ui/icons/home">
            <mask id="mask-2" fill="white">
                <use xlink:href="#path-1"></use>
            </mask>
            <use id="icon-base" fill="#000000" xlink:href="#path-1"></use>
            <g id="ui/color/darker" mask="url(#mask-2)"></g>
        </g>
    </g>
</svg>