<?xml version="1.0" encoding="UTF-8"?>
<svg width="160px" height="160px" viewBox="0 0 160 160" version="1.1" xmlns="http://www.w3.org/2000/svg" xmlns:xlink="http://www.w3.org/1999/xlink">
    <!-- Generator: Sketch 48.2 (47327) - http://www.bohemiancoding.com/sketch -->
    <title>Group</title>
    <desc>Created with Sketch.</desc>
    <defs>
        <path d="M33.3852083,43.85875 C33.3852083,40.0254167 36.5852083,36.915 40.5289583,36.915 C43.2435417,36.9170833 45.5747917,38.4066667 46.783125,40.57125 L36.1102083,49.2775 C34.4622917,48.0045833 33.3852083,46.0629167 33.3852083,43.85875 Z M23.8616667,31.7402083 L23.8616667,59.2672917 L16.7179167,65.0922917 L16.7179167,26.5860417 C16.7179167,24.6297917 18.3241667,23.025625 20.3033333,23.025625 L68.2970833,23.025625 L59.7825,29.9714583 L25.66375,29.9714583 C24.6429167,29.9714583 23.8616667,30.763125 23.8616667,31.7402083 Z M76.2420833,41.8495833 L83.3858333,36.0245833 L83.3858333,75.0225 C83.3858333,76.97875 81.7795833,78.5829167 79.8004167,78.5829167 L31.2045833,78.5829167 L66.5983333,49.7141667 L76.2420833,62.37875 L76.2420833,41.8495833 Z M82.4789583,24.2075 C83.5935417,25.5741667 83.389375,27.5845833 82.0227083,28.6991667 L21.9727083,77.6783333 C20.6060417,78.7929167 18.5935417,78.5866667 17.4789583,77.2220833 L17.3852083,77.1054167 C16.270625,75.73875 16.4747917,73.7283333 17.8414583,72.6116667 L77.8935417,23.6366667 C79.2602083,22.52 81.270625,22.72625 82.3852083,24.0908333 L82.4789583,24.2075 Z" id="path-1"></path>
    </defs>
    <g id="asset/images/products-main/no-image" stroke="none" stroke-width="1" fill="none" fill-rule="evenodd">
        <g id="Group">
            <rect id="Rectangle" fill="#FFFFFF" x="0" y="0" width="160" height="160"></rect>
            <g id="ui/icons/no-photo" opacity="0.5" transform="translate(30.000000, 30.000000)">
                <mask id="mask-2" fill="white">
                    <use xlink:href="#path-1"></use>
                </mask>
                <use id="icon-base" fill="#000000" fill-rule="evenodd" xlink:href="#path-1"></use>
                <g id="ui/color/light" mask="url(#mask-2)"></g>
            </g>
        </g>
    </g>
</svg>